<?xml version="1.0" encoding="UTF-8" standalone="no"?>
<!DOCTYPE svg PUBLIC "-//W3C//DTD SVG 1.1//EN" "http://www.w3.org/Graphics/SVG/1.1/DTD/svg11.dtd">
<svg width="100%" height="100%" viewBox="0 0 468 341" version="1.1" xmlns="http://www.w3.org/2000/svg" xmlns:xlink="http://www.w3.org/1999/xlink" xml:space="preserve" xmlns:serif="http://www.serif.com/" style="fill-rule:evenodd;clip-rule:evenodd;stroke-linecap:round;stroke-linejoin:round;stroke-miterlimit:1.5;">
    <g transform="matrix(1,0,0,1,-287.783658,-362.619598)">
        <path d="M512,406.845C519.757,406.6 532.691,406.402 542.046,407.343C578.421,409.835 592.062,416.612 599.899,411.91C608.459,406.775 643.554,363.12 643.554,363.12C643.554,363.12 668.764,433.059 679.892,445.898C691.02,458.738 703.076,467.477 716.931,489.561C738.268,523.57 731.72,538.596 731.72,538.596C735.532,536.663 739.111,535.999 743.214,536.305C745.928,536.507 748.871,537.133 752.263,538.096C750.605,549.729 745.023,557.439 738.568,564.275C745.68,561.405 750.96,558.901 755.081,556.629C755.5,559.143 748.347,574.452 740.196,580.605C736.66,583.275 751.549,578.91 751.549,578.91C751.549,578.91 742.452,589.328 734.836,597.966C720.798,613.887 699.563,657.262 605.002,693.669C589.111,699.787 565.178,701.564 548.949,702.02C548.946,702.114 548.945,702.162 548.945,702.162C548.945,702.162 491.535,702.667 490.637,702.162C490.601,702.142 490.56,702.049 490.513,701.888C474.529,701.261 453.035,699.311 438.38,693.669C343.819,657.262 322.584,613.887 308.546,597.966C300.93,589.328 291.833,578.91 291.833,578.91C291.833,578.91 306.722,583.275 303.185,580.605C295.035,574.452 287.882,559.143 288.301,556.629C292.422,558.901 297.702,561.405 304.814,564.275C298.359,557.439 292.777,549.729 291.119,538.096C294.511,537.133 297.454,536.507 300.168,536.305C304.271,535.999 307.85,536.663 311.662,538.596C311.662,538.596 305.114,523.57 326.451,489.561C340.306,467.477 352.362,458.738 363.49,445.898C374.618,433.059 399.828,363.12 399.828,363.12C399.828,363.12 434.923,406.775 443.483,411.91C452.043,417.046 467.527,408.487 512,406.775L512,406.845Z" style="fill:white;stroke:black;stroke-width:1px;"/>
    </g>
</svg>
